# xmcd
#
# Track frame offsets:
#      180
#      20400
#      47104
#      63362
#      93846
#      115387
#      130242
#      151959
#      160288
#      186325
# 
# Disc length: 2793 seconds
#
# Revision: 6
# Processed by: cddbd v1.4PL0 Copyright (c) Steve Scherf et al.
#
# Submitted via: FreeRIP 1.20
#
DISCID=810ae70a
DTITLE=Dali Automatic - Kiss Yr Universe
DYEAR=1994
DGENRE=Alt. Rock
TTITLE0=Take What You Need
TTITLE1=Yr Song
TTITLE2=Somewhere Over A Rainbow
TTITLE3=Drowning
TTITLE4=Captain
TTITLE5=My Twin
TTITLE6=Yeah Yeah Yeah
TTITLE7=Beta
TTITLE8=Tear Us Apart
TTITLE9=Tomorrow Never Knows
EXTD=ID3G:   2
EXTT0=
EXTT1=
EXTT2=
EXTT3=
EXTT4=
EXTT5=
EXTT6=
EXTT7=
EXTT8=
EXTT9=
PLAYORDER=
